<?xml version="1.0" encoding="UTF-8" standalone="no"?>
<!-- Created with Inkscape (http://www.inkscape.org/) -->

<svg
   version="1.1"
   id="svg2"
   width="926.67999"
   height="194.06667"
   viewBox="0 0 926.67999 194.06667"
   sodipodi:docname="GBH_Archives_rgb_color.eps"
   xmlns:inkscape="http://www.inkscape.org/namespaces/inkscape"
   xmlns:sodipodi="http://sodipodi.sourceforge.net/DTD/sodipodi-0.dtd"
   xmlns="http://www.w3.org/2000/svg"
   xmlns:svg="http://www.w3.org/2000/svg">
  <defs
     id="defs6" />
  <sodipodi:namedview
     id="namedview4"
     pagecolor="#ffffff"
     bordercolor="#000000"
     borderopacity="0.25"
     inkscape:showpageshadow="2"
     inkscape:pageopacity="0.0"
     inkscape:pagecheckerboard="0"
     inkscape:deskcolor="#d1d1d1"
     showgrid="false" />
  <g
     id="g10"
     inkscape:groupmode="layer"
     inkscape:label="Page 1"
     transform="matrix(1.3333333,0,0,-1.3333333,0,194.06667)">
    <g
       id="g12"
       transform="scale(0.1)">
      <path
         d="m 741.531,970.199 c -135.652,0 -229.523,-104.726 -229.523,-242.449 0,-144.973 93.863,-242.441 232.105,-242.441 84.867,0 163.18,46.445 181.914,123.593 H 693.156 V 845.973 H 1081.23 V 1050.48 L 913.227,896.098 c -42.977,48.898 -95.258,74.101 -171.696,74.101"
         style="fill:#772b8d;fill-opacity:1;fill-rule:nonzero;stroke:none"
         id="path14" />
      <path
         d="M 2241.91,255.988 V 610.191 H 2032.33 V 255.988 H 1771.99 V 406.672 C 1718.29,301.898 1595.5,255.988 1418.58,255.988 H 1081.23 V 389.25 C 1000.6,300.34 885.551,243.059 750.574,243.059 c -319.246,0 -498.91,222.316 -498.91,484.691 0,112.344 32.738,213.055 90.789,293.2 L 175.047,867.094 C 51.082,753.121 0,644.086 0,484.691 0,222.32 179.66,0 498.91,0 621.039,0 726.852,46.8906 805.617,121.68 l 11.762,10.832 V 12.9219 h 337.351 c 136.14,0 240.23,27.1875 305.44,87.4691 l 49.39,45.488 V 13.0117 h 290.82 L 1947.51,148.531 V 13.0117 h 290.82 l 263.81,242.9763 h -260.23"
         style="fill:#772b8d;fill-opacity:1;fill-rule:nonzero;stroke:none"
         id="path16" />
      <path
         d="m 1328.65,477.563 h 110.06 c 71.09,0 95.65,34.347 95.65,78.292 0,42.657 -23.27,73.731 -89.18,73.731 H 1328.65 V 477.563"
         style="fill:#772b8d;fill-opacity:1;fill-rule:nonzero;stroke:none"
         id="path18" />
      <path
         d="m 2471.84,1442.5 -143.68,-133.21 v 133.21 h -294.27 l -73.48,-68.12 c -58.13,45.8 -147.52,68.2 -271.51,68.2 h -343.81 l -61.35,-56.83 c -73.65,43.61 -163.4,69.76 -267.45,69.76 -139.806,0 -254.142,-47.47 -344.548,-130.47 L 470.613,1139.77 c 75.313,46.41 166.887,72.68 269.621,72.68 141.707,0 256.899,-48.5 340.996,-123.55 v 110.63 h 343.81 c 206.39,0 316.92,-62.08 346.95,-190.83 v 190.83 h 260.34 V 853.07 h 209.58 v 346.46 h 260.34 V 256.102 l 263.86,243.023 V 1442.5 h -294.27"
         style="fill:#772b8d;fill-opacity:1;fill-rule:nonzero;stroke:none"
         id="path20" />
      <path
         d="m 1526.61,912.582 c 0,34.902 -23.27,66.672 -73.68,66.672 H 1328.65 V 836.273 h 126.87 c 49.12,0 71.09,41.418 71.09,76.309"
         style="fill:#772b8d;fill-opacity:1;fill-rule:nonzero;stroke:none"
         id="path22" />
      <path
         d="m 1682.1,741.188 c 38.38,-22.883 68.55,-49.571 89.89,-85.559 v 220.586 c -15.36,-59.043 -46.9,-101.961 -89.89,-135.027"
         style="fill:#772b8d;fill-opacity:1;fill-rule:nonzero;stroke:none"
         id="path24" />
      <path
         d="m 3201.11,791.059 h 244 l -122,306.991 z m -226,-292 290,700.001 h 123 l 286,-700.001 h -114 l -81,205 h -313 l -82,-205 h -109"
         style="fill:#772b8d;fill-opacity:1;fill-rule:nonzero;stroke:none"
         id="path26" />
      <path
         d="m 3750.9,499.059 v 508.991 h 100 v -64.999 c 15.32,24.668 35,43.508 58.99,56.504 24.01,13.005 51.01,19.505 81.01,19.505 10.65,0 20,-0.68 28,-2.01 7.99,-1.34 15.65,-3.34 22.99,-5.99 v -90.001 c -9.34,3.32 -19,5.996 -29,8 -10,2 -20,2.996 -30,2.996 -29.34,0 -55.5,-7.84 -78.5,-23.496 -22.99,-15.672 -40.84,-38.848 -53.49,-69.5 v -340 h -100"
         style="fill:#772b8d;fill-opacity:1;fill-rule:nonzero;stroke:none"
         id="path28" />
      <path
         d="m 4354.38,578.051 c 25.33,0 49.33,5.156 72.01,15.508 22.65,10.332 44.32,25.82 65,46.504 l 60,-65 c -26.68,-26.68 -57.35,-47.5 -92.01,-62.5 -34.67,-15 -71,-22.5 -109,-22.5 -36.67,0 -71,6.835 -103,20.488 -32,13.664 -59.67,32.168 -83,55.508 -23.35,23.32 -41.84,51.152 -55.49,83.496 -13.68,32.324 -20.51,67.16 -20.51,104.504 0,36.648 6.83,71.16 20.51,103.504 13.65,32.324 32.14,60.324 55.49,83.996 23.33,23.66 51,42.332 83,56.004 32,13.647 66.33,20.487 103,20.487 38,0 75,-7.5 111.01,-22.499 35.99,-15 67.32,-35.84 93.99,-62.5 l -63,-67.988 c -19.34,20.644 -40.99,36.496 -65,47.5 -24,10.996 -49,16.496 -75,16.496 -45.99,0 -85,-17.004 -117,-51.008 -32,-33.992 -48,-75.332 -48,-123.992 0,-50 16.15,-91.848 48.5,-125.5 32.33,-33.672 71.83,-50.508 118.5,-50.508"
         style="fill:#772b8d;fill-opacity:1;fill-rule:nonzero;stroke:none"
         id="path30" />
      <path
         d="m 4642.59,499.059 v 700.001 l 100,22 V 957.055 c 20,20 42.82,35.156 68.49,45.505 25.66,10.33 53.83,15.49 84.51,15.49 57.99,0 105.65,-18.495 142.99,-55.487 37.33,-37.012 56,-84.844 56,-143.504 v -320 h -100 v 302.996 c 0,40 -11.49,71.504 -34.49,94.504 -23.01,22.996 -53.51,34.5 -91.51,34.5 -26.67,0 -50.84,-5.672 -72.5,-17 -21.67,-11.34 -39.5,-27.668 -53.49,-48.996 V 499.059 h -100"
         style="fill:#772b8d;fill-opacity:1;fill-rule:nonzero;stroke:none"
         id="path32" />
      <path
         d="M 5324.67,1008.05 V 499.059 h -100 v 508.991 z m -50,82.01 c -16.68,0 -31.01,6.15 -43.01,18.5 -11.99,12.32 -18,26.83 -18,43.49 0,16.66 6.01,31.16 18,43.5 12,12.34 26.33,18.51 43.01,18.51 16.65,0 31.15,-6.17 43.49,-18.51 12.33,-12.34 18.5,-26.84 18.5,-43.5 0,-16.66 -6.17,-31.17 -18.5,-43.49 -12.34,-12.35 -26.84,-18.5 -43.49,-18.5"
         style="fill:#772b8d;fill-opacity:1;fill-rule:nonzero;stroke:none"
         id="path34" />
      <path
         d="m 5618.65,499.059 -220,508.991 h 110 l 159.01,-380.995 158.99,380.995 h 107 l -220,-508.991 h -95"
         style="fill:#772b8d;fill-opacity:1;fill-rule:nonzero;stroke:none"
         id="path36" />
      <path
         d="m 6209.64,932.055 c -38.01,0 -71.17,-12.676 -99.5,-37.996 -28.35,-25.344 -46.18,-58 -53.51,-98 h 302 c -7.34,38.652 -24.84,70.996 -52.5,96.992 -27.66,26.008 -59.84,39.004 -96.49,39.004 z m 210.99,-375 c -29.34,-22.676 -60,-39.492 -92,-50.496 -32,-11.008 -67,-16.496 -105,-16.496 -37.34,0 -72.34,6.835 -105,20.488 -32.66,13.664 -60.99,32.168 -85,55.508 -23.99,23.32 -42.84,51.152 -56.49,83.496 -13.67,32.324 -20.51,67.16 -20.51,104.504 0,36.648 6.66,71.004 20,102.996 13.33,32.004 31.33,59.66 54,83.008 22.66,23.32 49.66,41.816 81,55.488 31.33,13.659 64.66,20.509 100,20.509 34.66,0 67.16,-6.85 97.5,-20.509 30.33,-13.672 56.33,-32.344 78.01,-55.996 21.65,-23.672 38.83,-51.836 51.49,-84.492 12.66,-32.676 19.01,-67.676 19.01,-105 v -29.004 h -402.01 c 6.66,-42 26,-76.844 58,-104.5 32,-27.668 70,-41.496 114.01,-41.496 24.65,0 48.33,3.996 70.99,11.992 22.66,8.008 42,19.004 58,33.008 l 64,-63.008"
         style="fill:#772b8d;fill-opacity:1;fill-rule:nonzero;stroke:none"
         id="path38" />
      <path
         d="m 6514.13,565.063 54,65.996 c 26.66,-20.672 53.83,-36.504 81.51,-47.5 27.65,-10.996 55.82,-16.504 84.49,-16.504 36.01,0 65.33,7.004 88.01,20.996 22.65,14.004 33.99,32.336 33.99,55 0,18.008 -6.67,32.336 -20,43.008 -13.34,10.656 -33.99,18 -62,21.992 l -91.99,13.008 c -50,7.324 -87.85,22.832 -113.51,46.504 -25.67,23.652 -38.49,55.156 -38.49,94.492 0,45.996 18.33,83.164 55,111.504 36.65,28.321 84.65,42.501 143.99,42.501 37.33,0 72.83,-5.35 106.5,-16 33.66,-10.681 66.51,-27.009 98.5,-49.001 l -51,-65.996 c -27.99,18.652 -55.17,32.148 -81.5,40.488 -26.34,8.34 -52.84,12.5 -79.49,12.5 -30.68,0 -55.35,-6.336 -74.01,-18.992 -18.67,-12.668 -27.99,-29.348 -27.99,-50 0,-18.672 6.49,-32.844 19.5,-42.5 13,-9.68 34.49,-16.848 64.49,-21.496 l 92,-13.008 c 50,-7.344 88.16,-22.996 114.5,-46.992 26.33,-24.004 39.51,-55.684 39.51,-95 0,-22.676 -5.5,-43.848 -16.51,-63.504 -10.99,-19.68 -25.99,-36.496 -45,-50.5 -18.99,-14.004 -41.49,-25.176 -67.5,-33.496 -25.99,-8.34 -53.99,-12.5 -83.99,-12.5 -44.01,0 -85.18,6.339 -123.51,18.996 -38.34,12.656 -71.49,31.328 -99.5,56.004"
         style="fill:#772b8d;fill-opacity:1;fill-rule:nonzero;stroke:none"
         id="path40" />
    </g>
  </g>
</svg>
